<svg width="15" height="15" viewBox="0 0 15 15" fill="none" xmlns="http://www.w3.org/2000/svg">
<path fill-rule="evenodd" clip-rule="evenodd" d="M6.63227 2.93133L1.36132 0.994015L3.30392 6.25969L3.37783 6.49184L1.52074 6.49146C1.40434 6.49143 1.28909 6.51433 1.18156 6.55885C1.07404 6.60337 0.976343 6.66864 0.894056 6.75093C0.811769 6.83322 0.746502 6.93091 0.701981 7.03844C0.657461 7.14596 0.634559 7.26121 0.634583 7.37761C0.634608 7.49401 0.657557 7.60927 0.702122 7.71681C0.746687 7.82436 0.811994 7.92208 0.894316 8.0044C0.976637 8.08672 1.07436 8.15203 1.1819 8.19659C1.28945 8.24116 1.40471 8.26411 1.52111 8.26413L3.36237 8.25924L3.30964 8.4175L3.2991 8.44915L1.36396 13.7193L6.63411 11.7842L6.81875 11.7156L6.82441 13.5674C6.82515 13.8018 6.91898 14.0263 7.08523 14.1916C7.16755 14.2734 7.26518 14.3382 7.37253 14.3824C7.47989 14.4265 7.59488 14.449 7.71093 14.4487C7.82698 14.4484 7.94182 14.4252 8.04889 14.3805C8.15596 14.3358 8.25317 14.2704 8.33497 14.1881C8.50017 14.0219 8.59255 13.7969 8.59181 13.5625L8.59142 11.7054L8.82885 11.7846L14.0892 13.7219L12.1519 8.45099L12.0886 8.26105L13.8929 8.26142C14.009 8.26179 14.1239 8.2393 14.2313 8.19523C14.3386 8.15116 14.4362 8.08638 14.5185 8.00459C14.6008 7.92279 14.6661 7.82558 14.7109 7.7185C14.7556 7.61143 14.7787 7.49659 14.7791 7.38054C14.7794 7.26449 14.7568 7.14951 14.7127 7.04215C14.6686 6.93479 14.6038 6.83717 14.522 6.75485C14.4401 6.67252 14.3429 6.60712 14.2358 6.56237C14.1287 6.51762 14.0139 6.49439 13.8978 6.49402L12.0724 6.49364L12.1462 6.26152L14.0919 0.991379L8.82174 2.92651L8.58962 3.01088L8.58924 1.18544C8.58887 1.06939 8.56565 0.954544 8.52089 0.847452C8.47614 0.74036 8.41074 0.643122 8.32842 0.561291C8.24609 0.47946 8.14847 0.414638 8.04111 0.370526C7.93375 0.326413 7.81877 0.303874 7.70272 0.304197C7.58667 0.304519 7.47183 0.327696 7.36476 0.372404C7.25768 0.417112 7.16047 0.482475 7.07868 0.564762C6.99688 0.64705 6.9321 0.74465 6.88803 0.851988C6.84396 0.959327 6.82147 1.0743 6.82184 1.19035L6.82221 2.98413C6.76373 2.96999 6.70566 2.95414 6.6481 2.93661L6.627 2.92606L6.63227 2.93133ZM5.15015 4.79339L5.40354 5.48985C5.84859 6.69894 5.84887 8.02678 5.40431 9.23569L5.15122 9.93204L5.84757 9.67895C7.05648 9.23439 8.38432 9.23467 9.59341 9.67973L10.2899 9.93311L10.0365 9.23665C9.59143 8.02756 9.59115 6.69972 10.0357 5.49081L10.2888 4.79446L9.59245 5.04755C8.38354 5.49211 7.0557 5.49183 5.84661 5.04678L5.15015 4.79339Z" fill="#FDFCFD"/>
</svg>
